<?xml version="1.0" encoding="UTF-8"?>
<svg width="118px" height="41px" viewBox="0 0 118 41" version="1.1" xmlns="http://www.w3.org/2000/svg" xmlns:xlink="http://www.w3.org/1999/xlink">
    <!-- Generator: Sketch 52.2 (67145) - http://www.bohemiancoding.com/sketch -->
    <title>Group 3</title>
    <desc>Created with Sketch.</desc>
    <g id="ipFindco" stroke="none" stroke-width="1" fill="none" fill-rule="evenodd">
        <g id="Group-3" fill="#0050FF">
            <path d="M106.778259,23.759126 C106.778259,25.9919274 108.235883,27.7875334 110.533726,27.7875334 C112.772185,27.7875334 114.289685,26.0678328 114.289685,23.759126 C114.289685,21.4509122 112.772185,19.7312115 110.533726,19.7312115 C108.235883,19.7312115 106.778259,21.5263246 106.778259,23.759126 Z M114.094353,17.9809515 L114.094353,9.35139603 L118,9.35139603 L118,31.0766027 L114.169443,31.0766027 L114.169443,29.461888 C113.208,30.6537012 111.810742,31.4536651 109.813258,31.4536651 C105.786879,31.4536651 102.767094,28.1493163 102.767094,23.759126 C102.767094,19.3689358 105.786879,16.0650798 109.813258,16.0650798 C111.780805,16.0650798 113.13291,16.8344844 114.094353,17.9809515 Z M100.121777,21.7678418 L100.121777,31.0766027 L96.2004248,31.0766027 L96.2004248,23.0350675 C96.2004248,20.907745 95.164383,19.7612779 93.3612483,19.7612779 C91.678846,19.7612779 90.2820791,20.8476122 90.2820791,23.0651339 L90.2820791,31.0766027 L86.3607273,31.0766027 L86.3607273,16.4574219 L90.1765609,16.4574219 L90.1765609,18.1771226 C91.2130934,16.6230337 92.7904683,16.0650798 94.4576563,16.0650798 C97.7630761,16.0650798 100.121777,18.3732937 100.121777,21.7678418 Z M78.7732305,31.0766027 L82.6940915,31.0766027 L82.6940915,16.4574219 L78.7732305,16.4574219 L78.7732305,31.0766027 Z M83.2202103,11.6743967 C83.2202103,13.0924473 82.1080973,14.1787816 80.7113304,14.1787816 C79.2993493,14.1787816 78.2176647,13.0924473 78.2176647,11.6743967 C78.2176647,10.256346 79.2993493,9.1399453 80.7113304,9.1399453 C82.1080973,9.1399453 83.2202103,10.256346 83.2202103,11.6743967 Z M71.6662097,19.957449 L71.6662097,31.0766027 L67.7453486,31.0766027 L67.7453486,19.957449 L65.0264138,19.957449 L65.0264138,16.4574219 L67.7453486,16.4574219 L67.7453486,14.6470291 C67.7453486,11.2219217 69.5632069,8.97384065 72.9584399,8.97384065 C74.941201,8.97384065 76.3080302,9.5470742 77.4348667,10.2864124 L75.8722154,13.3492441 C75.1517467,12.9421152 74.2948405,12.6399723 73.3785497,12.6399723 C72.2369897,12.6399723 71.6662097,13.3186848 71.6662097,14.6918823 L71.6662097,16.4574219 L76.1882793,16.4574219 L76.1882793,19.957449 L71.6662097,19.957449 Z M52.3441043,23.759126 C52.3441043,26.0678328 53.8616037,27.7875334 56.0848482,27.7875334 C58.3983967,27.7875334 59.8403156,25.9919274 59.8403156,23.759126 C59.8403156,21.5263246 58.3983967,19.7312115 56.0848482,19.7312115 C53.8616037,19.7312115 52.3441043,21.4509122 52.3441043,23.759126 Z M63.8662041,23.759126 C63.8662041,28.1493163 60.8469104,31.4536651 56.8210219,31.4536651 C54.8529843,31.4536651 53.5008786,30.6990473 52.5394357,29.5525802 L52.5394357,37.1115739 L48.6337889,37.1115739 L48.6337889,16.4574219 L52.464346,16.4574219 L52.464346,18.0716437 C53.4257889,16.8645508 54.8078323,16.0650798 56.8062984,16.0650798 C60.8169727,16.0650798 63.8662041,19.3689358 63.8662041,23.759126 Z M41.0462921,31.0766027 L44.9671532,31.0766027 L44.9671532,16.4574219 L41.0462921,16.4574219 L41.0462921,31.0766027 Z M45.493272,11.6743967 C45.493272,13.0924473 44.3816497,14.1787816 42.9848828,14.1787816 C41.5724109,14.1787816 40.4912172,13.0924473 40.4912172,11.6743967 C40.4912172,10.256346 41.5724109,9.1399453 42.9848828,9.1399453 C44.3816497,9.1399453 45.493272,10.256346 45.493272,11.6743967 Z M18.8486923,7.12007333 C17.2089882,5.4738136 15.0549439,4.65019085 12.9018813,4.65019085 C10.7478371,4.65019085 8.59379288,5.4738136 6.95507026,7.12007333 C3.67566187,10.4135786 3.67566187,15.7723019 6.95507026,19.0658071 L12.9018813,25.0381811 L18.8486923,19.0658071 C22.1276099,15.7723019 22.1276099,10.4135786 18.8486923,7.12007333 Z M21.8832003,22.598365 L16.9140279,27.588405 C15.8284171,28.6786824 15.2178837,30.1583446 15.2178837,31.701097 L15.2178837,36.7463409 C15.2178837,37.7158597 14.7030529,38.6119376 13.8672504,39.0964506 L10.5848973,41 L10.5848973,31.701097 C10.5848973,30.1583446 9.97485472,28.6786824 8.88875314,27.588405 L3.92007153,22.598365 C-1.10455927,17.5516425 -1.38823153,9.01967962 3.58683025,3.92366784 C8.69440329,-1.30788928 17.1083777,-1.30788928 22.2164416,3.92366784 C27.1915033,9.01967962 26.9078311,17.5516425 21.8832003,22.598365 Z M16.4149021,16.6392991 C16.4149021,18.5877017 14.8419444,20.1679139 12.9018813,20.1679139 C10.9613275,20.1679139 9.38836968,18.5877017 9.38836968,16.6392991 C9.38836968,14.6904036 10.9613275,13.1106843 12.9018813,13.1106843 C14.8419444,13.1106843 16.4149021,14.6904036 16.4149021,16.6392991 Z" id="Fill-1"></path>
        </g>
    </g>
</svg>