<svg xmlns="http://www.w3.org/2000/svg" xmlns:xlink="http://www.w3.org/1999/xlink" viewBox="0 0 42 42"><defs><style>.cls-1,.cls-2,.cls-3{stroke:#0050ff;}.cls-1,.cls-2,.cls-3,.cls-4{stroke-linecap:round;stroke-linejoin:round;stroke-width:2px;}.cls-1{fill:url(#linear-gradient);}.cls-2,.cls-4{fill:none;}.cls-3{fill:url(#linear-gradient-2);}.cls-4{stroke:#000c48;}</style><linearGradient id="linear-gradient" x1="14.91" y1="14.04" x2="41" y2="14.04" gradientUnits="userSpaceOnUse"><stop offset="0" stop-color="#0050ff" stop-opacity="0.3"/><stop offset="0.6" stop-color="#0050ff" stop-opacity="0"/></linearGradient><linearGradient id="linear-gradient-2" x1="1" y1="27.96" x2="27.07" y2="27.96" xlink:href="#linear-gradient"/></defs><title>Asset 2</title><g id="Layer_2" data-name="Layer 2"><g id="Layer_1-2" data-name="Layer 1"><g id="Outline_Icons" data-name="Outline Icons"><circle class="cls-1" cx="27.96" cy="14.04" r="13.04"/><line class="cls-2" x1="27.96" y1="19.26" x2="27.96" y2="21"/><line class="cls-2" x1="27.96" y1="7.09" x2="27.96" y2="8.83"/><path class="cls-2" d="M25.35,16.65A2.61,2.61,0,1,0,28,14a2.61,2.61,0,1,1,2.61-2.61"/><path class="cls-3" d="M15,15A13,13,0,1,0,27,27"/><path class="cls-2" d="M14,34.91a6.09,6.09,0,0,1,0-12.17"/><line class="cls-2" x1="6.22" y1="27.09" x2="13.17" y2="27.09"/><line class="cls-2" x1="6.22" y1="30.57" x2="13.17" y2="30.57"/><polyline class="cls-4" points="1.84 8.89 5.33 12.35 8.79 8.86"/><path class="cls-4" d="M14,1.89a8.7,8.7,0,0,0-8.67,8.72v1.74"/><polyline class="cls-4" points="40.16 33.11 36.67 29.65 33.21 33.14"/><path class="cls-4" d="M28,40.11a8.69,8.69,0,0,0,8.67-8.72V29.65"/></g></g></g></svg>