<svg xmlns="http://www.w3.org/2000/svg" xmlns:xlink="http://www.w3.org/1999/xlink" viewBox="0 0 42 45.14"><defs><style>.cls-1,.cls-3{stroke:#0050ff;}.cls-1,.cls-2,.cls-3,.cls-4{stroke-linecap:round;stroke-linejoin:round;stroke-width:2px;}.cls-1{fill:url(#linear-gradient);}.cls-2{fill:#fff;}.cls-2,.cls-4{stroke:#000c48;}.cls-3,.cls-4{fill:none;}</style><linearGradient id="linear-gradient" x1="1" y1="13.62" x2="27.67" y2="13.62" gradientUnits="userSpaceOnUse"><stop offset="0" stop-color="#0050ff" stop-opacity="0.3"/><stop offset="0.6" stop-color="#0050ff" stop-opacity="0"/></linearGradient></defs><title>Asset 5</title><g id="Layer_2" data-name="Layer 2"><g id="Layer_1-2" data-name="Layer 1"><path class="cls-1" d="M25.15,21.82H9.88L5.63,26.25V21.82H3.51A2.51,2.51,0,0,1,1,19.31V3.51A2.51,2.51,0,0,1,3.51,1H25.15a2.51,2.51,0,0,1,2.51,2.51V19.31A2.51,2.51,0,0,1,25.15,21.82Z"/><path class="cls-2" d="M16.85,39.71H32.12l4.26,4.43V39.71h2.11A2.51,2.51,0,0,0,41,37.19V21.4a2.51,2.51,0,0,0-2.51-2.51H16.85a2.51,2.51,0,0,0-2.51,2.51V37.19A2.51,2.51,0,0,0,16.85,39.71Z"/><path class="cls-3" d="M9.25,16.36,14.33,6l5.08,10.39"/><line class="cls-3" x1="11.02" y1="12.74" x2="17.65" y2="12.74"/><line class="cls-4" x1="21.52" y1="26.66" x2="33.81" y2="26.66"/><line class="cls-4" x1="27.67" y1="23.71" x2="27.67" y2="26.66"/><path class="cls-4" d="M25.61,26.66c0,6.15,6.49,8.36,6.49,8.36"/><path class="cls-4" d="M29.73,26.66c0,6.15-6.49,8.36-6.49,8.36"/></g></g></svg>