<svg xmlns="http://www.w3.org/2000/svg" xmlns:xlink="http://www.w3.org/1999/xlink" viewBox="0 0 33.4 42"><defs><style>.cls-1,.cls-2,.cls-3{stroke:#0050ff;}.cls-1,.cls-2,.cls-3,.cls-4{stroke-linecap:round;stroke-linejoin:round;stroke-width:2px;}.cls-1{fill:url(#linear-gradient);}.cls-2,.cls-3{fill:none;}.cls-2{opacity:0.6;}.cls-4{fill:#fff;stroke:#000c48;}</style><linearGradient id="linear-gradient" x1="16.7" y1="41" x2="16.7" y2="25.3" gradientUnits="userSpaceOnUse"><stop offset="0" stop-color="#0050ff" stop-opacity="0.3"/><stop offset="1" stop-color="#0050ff" stop-opacity="0"/></linearGradient></defs><title>Asset 9</title><g id="Layer_2" data-name="Layer 2"><g id="Layer_1-2" data-name="Layer 1"><path class="cls-1" d="M32.4,25.3A15.7,15.7,0,0,1,1,25.3"/><path class="cls-2" d="M22,20a41.75,41.75,0,0,1,.33,5.3C22.33,34,19.81,41,16.7,41s-5.63-7-5.63-15.7A41.75,41.75,0,0,1,11.4,20"/><ellipse class="cls-3" cx="16.7" cy="25.3" rx="15.7" ry="5.63"/><path class="cls-4" d="M26.32,10.62c0,7.36-9.62,14.71-9.62,14.71S7.08,18,7.08,10.62a9.62,9.62,0,0,1,19.24,0Z"/><circle class="cls-4" cx="16.7" cy="10.62" r="3.96"/></g></g></svg>