<svg xmlns="http://www.w3.org/2000/svg" xmlns:xlink="http://www.w3.org/1999/xlink" viewBox="0 0 42 42"><defs><style>.cls-1{fill:none;stroke:#000;}.cls-1,.cls-2,.cls-3,.cls-4,.cls-5,.cls-6{stroke-linecap:round;stroke-linejoin:round;stroke-width:2px;}.cls-2,.cls-3,.cls-4,.cls-5{stroke:#0050ff;}.cls-2{fill:url(#linear-gradient);}.cls-3{fill:url(#linear-gradient-2);}.cls-4{fill:url(#linear-gradient-3);}.cls-5{fill:url(#linear-gradient-4);}.cls-6{fill:#fff;stroke:#000c48;}</style><linearGradient id="linear-gradient" x1="21" y1="41" x2="21" y2="19.18" gradientUnits="userSpaceOnUse"><stop offset="0" stop-color="#0050ff" stop-opacity="0.3"/><stop offset="1" stop-color="#0050ff" stop-opacity="0"/></linearGradient><linearGradient id="linear-gradient-2" x1="10.09" y1="28.73" x2="11" y2="28.73" xlink:href="#linear-gradient"/><linearGradient id="linear-gradient-3" x1="31" y1="28.73" x2="31.91" y2="28.73" xlink:href="#linear-gradient"/><linearGradient id="linear-gradient-4" y1="36.91" y2="36.91" xlink:href="#linear-gradient"/></defs><title>Asset 8</title><g id="Layer_2" data-name="Layer 2"><g id="Layer_1-2" data-name="Layer 1"><g id="maplocate-3"><path class="cls-1" d="M21,23.73"/><polyline class="cls-2" points="33.73 19.18 38.27 24.64 41 41 31.91 33.73 21 41 10.09 33.73 1 41 3.73 24.64 8.27 19.18"/><line class="cls-3" x1="11" y1="23.73" x2="10.09" y2="33.73"/><line class="cls-4" x1="31" y1="23.73" x2="31.91" y2="33.73"/><line class="cls-5" x1="21" y1="32.82" x2="21" y2="41"/><path class="cls-6" d="M32.14,12.14c0,8.52-11.14,17-11.14,17S9.86,20.7,9.86,12.14a11.14,11.14,0,1,1,22.28,0Z"/><circle class="cls-6" cx="21" cy="12.14" r="4.59"/></g></g></g></svg>